<svg width="648" height="648" viewBox="0 0 648 648" fill="none" xmlns="http://www.w3.org/2000/svg">
<circle cx="324" cy="77.9268" r="55" transform="rotate(-45 324 77.9268)" fill="#3C54BD"/>
<circle cx="570.073" cy="324" r="55" transform="rotate(-45 570.073 324)" fill="#3C54BD"/>
<circle cx="447.037" cy="447.037" r="55" transform="rotate(-45 447.037 447.037)" fill="#9DAEFD"/>
<circle cx="77.9268" cy="324" r="55" transform="rotate(-45 77.9268 324)" fill="#9DAEFD"/>
<circle cx="200.963" cy="200.963" r="55" transform="rotate(-45 200.963 200.963)" fill="#9DAEFD"/>
<rect x="94.8974" y="284.402" width="110" height="32" transform="rotate(-45 94.8974 284.402)" fill="#9DAEFD"/>
<circle cx="447.037" cy="200.963" r="55" transform="rotate(-45 447.037 200.963)" fill="#3C54BD"/>
<circle cx="324" cy="324" r="55" transform="rotate(-45 324 324)" fill="#3C54BD"/>
<rect x="345.92" y="279.452" width="110" height="32" transform="rotate(-45 345.92 279.452)" fill="#3C54BD"/>
<circle cx="200.963" cy="447.037" r="55" transform="rotate(-45 200.963 447.037)" fill="#9DAEFD"/>
<circle cx="324" cy="570.073" r="55" transform="rotate(-45 324 570.073)" fill="#9DAEFD"/>
<rect x="290.059" y="558.759" width="110" height="32" transform="rotate(-135 290.059 558.759)" fill="#9DAEFD"/>
</svg>
