<svg width="1940" height="648" viewBox="0 0 1940 648" fill="none" xmlns="http://www.w3.org/2000/svg">
<circle cx="324" cy="77.9268" r="55" transform="rotate(-45 324 77.9268)" fill="#3C54BD"/>
<circle cx="570.073" cy="324" r="55" transform="rotate(-45 570.073 324)" fill="#3C54BD"/>
<circle cx="447.037" cy="447.037" r="55" transform="rotate(-45 447.037 447.037)" fill="#9DAEFD"/>
<circle cx="77.9268" cy="324" r="55" transform="rotate(-45 77.9268 324)" fill="#9DAEFD"/>
<circle cx="200.963" cy="200.963" r="55" transform="rotate(-45 200.963 200.963)" fill="#9DAEFD"/>
<rect x="94.8974" y="284.402" width="110" height="32" transform="rotate(-45 94.8974 284.402)" fill="#9DAEFD"/>
<circle cx="447.037" cy="200.963" r="55" transform="rotate(-45 447.037 200.963)" fill="#3C54BD"/>
<circle cx="324" cy="324" r="55" transform="rotate(-45 324 324)" fill="#3C54BD"/>
<rect x="345.92" y="279.452" width="110" height="32" transform="rotate(-45 345.92 279.452)" fill="#3C54BD"/>
<circle cx="200.963" cy="447.037" r="55" transform="rotate(-45 200.963 447.037)" fill="#9DAEFD"/>
<circle cx="324" cy="570.073" r="55" transform="rotate(-45 324 570.073)" fill="#9DAEFD"/>
<rect x="290.059" y="558.759" width="110" height="32" transform="rotate(-135 290.059 558.759)" fill="#9DAEFD"/>
<path d="M876.43 212.05C883.25 212.05 889.263 213.48 894.47 216.34C899.677 219.127 903.747 223.453 906.68 229.32C909.687 235.187 911.19 242.74 911.19 251.98V305H878.3V257.04C878.3 250.733 877.347 245.637 875.44 241.75C873.533 237.863 869.757 235.92 864.11 235.92C860.737 235.92 857.767 236.8 855.2 238.56C852.633 240.32 850.653 242.777 849.26 245.93C847.867 249.01 847.17 252.713 847.17 257.04V305H816.48V257.04C816.48 250.733 815.417 245.637 813.29 241.75C811.237 237.863 807.57 235.92 802.29 235.92C798.917 235.92 795.947 236.8 793.38 238.56C790.813 240.247 788.833 242.667 787.44 245.82C786.12 248.9 785.46 252.64 785.46 257.04V305H752.24V214.69H785.46V227.56C786.34 225.287 788.247 222.977 791.18 220.63C794.187 218.21 797.89 216.193 802.29 214.58C806.69 212.893 811.347 212.05 816.26 212.05C821.613 212.05 826.087 212.857 829.68 214.47C833.273 216.01 836.207 218.1 838.48 220.74C840.827 223.38 842.697 226.24 844.09 229.32C845.117 226.68 847.133 224.04 850.14 221.4C853.22 218.687 857.033 216.45 861.58 214.69C866.2 212.93 871.15 212.05 876.43 212.05ZM931.66 305V214.69H965.1V305H931.66ZM948.82 196.1C943.54 196.1 939.067 194.267 935.4 190.6C931.734 186.86 929.9 182.423 929.9 177.29C929.9 172.157 931.734 167.72 935.4 163.98C939.14 160.167 943.614 158.26 948.82 158.26C952.267 158.26 955.42 159.14 958.28 160.9C961.14 162.587 963.45 164.86 965.21 167.72C966.97 170.58 967.85 173.77 967.85 177.29C967.85 182.423 965.98 186.86 962.24 190.6C958.5 194.267 954.027 196.1 948.82 196.1ZM1037.09 281.35C1041.27 281.35 1044.72 280.653 1047.43 279.26C1050.14 277.793 1051.98 276.62 1052.93 275.74L1068.22 298.4C1067.05 299.353 1065.03 300.6 1062.17 302.14C1059.31 303.607 1055.72 304.89 1051.39 305.99C1047.14 307.09 1042.26 307.64 1036.76 307.64C1026.42 307.64 1017.33 305.697 1009.48 301.81C1001.63 297.85 995.508 292.277 991.108 285.09C986.782 277.903 984.618 269.47 984.618 259.79C984.618 250.037 986.782 241.603 991.108 234.49C995.508 227.377 1001.63 221.877 1009.48 217.99C1017.33 214.03 1026.42 212.05 1036.76 212.05C1042.19 212.05 1047.03 212.637 1051.28 213.81C1055.61 214.91 1059.24 216.193 1062.17 217.66C1065.1 219.053 1067.16 220.263 1068.33 221.29L1052.71 244.17C1052.2 243.657 1051.24 242.923 1049.85 241.97C1048.53 241.017 1046.81 240.173 1044.68 239.44C1042.55 238.707 1040.02 238.34 1037.09 238.34C1033.5 238.34 1030.12 239.257 1026.97 241.09C1023.89 242.923 1021.4 245.453 1019.49 248.68C1017.58 251.907 1016.63 255.61 1016.63 259.79C1016.63 263.97 1017.58 267.71 1019.49 271.01C1021.4 274.237 1023.89 276.767 1026.97 278.6C1030.12 280.433 1033.5 281.35 1037.09 281.35ZM1112.39 305H1078.95V214.69H1112.39V228.66H1111.84C1112.43 226.973 1113.86 224.847 1116.13 222.28C1118.4 219.64 1121.59 217.293 1125.7 215.24C1129.81 213.113 1134.83 212.05 1140.77 212.05C1144.95 212.05 1148.8 212.71 1152.32 214.03C1155.84 215.277 1158.41 216.487 1160.02 217.66L1147.04 244.83C1146.01 243.583 1144.18 242.3 1141.54 240.98C1138.97 239.587 1135.75 238.89 1131.86 238.89C1127.39 238.89 1123.68 240.027 1120.75 242.3C1117.89 244.573 1115.76 247.323 1114.37 250.55C1113.05 253.777 1112.39 256.82 1112.39 259.68V305ZM1212.65 307.64C1202.75 307.64 1193.95 305.623 1186.25 301.59C1178.63 297.483 1172.61 291.873 1168.21 284.76C1163.89 277.573 1161.72 269.36 1161.72 260.12C1161.72 250.88 1163.89 242.667 1168.21 235.48C1172.61 228.22 1178.63 222.5 1186.25 218.32C1193.95 214.14 1202.75 212.05 1212.65 212.05C1222.55 212.05 1231.28 214.14 1238.83 218.32C1246.39 222.5 1252.29 228.22 1256.54 235.48C1260.8 242.667 1262.92 250.88 1262.92 260.12C1262.92 269.36 1260.8 277.573 1256.54 284.76C1252.29 291.873 1246.39 297.483 1238.83 301.59C1231.28 305.623 1222.55 307.64 1212.65 307.64ZM1212.65 280.14C1216.47 280.14 1219.77 279.297 1222.55 277.61C1225.34 275.923 1227.5 273.54 1229.04 270.46C1230.58 267.38 1231.35 263.897 1231.35 260.01C1231.35 256.05 1230.58 252.53 1229.04 249.45C1227.5 246.37 1225.34 243.95 1222.55 242.19C1219.77 240.43 1216.47 239.55 1212.65 239.55C1208.84 239.55 1205.5 240.43 1202.64 242.19C1199.86 243.95 1197.66 246.37 1196.04 249.45C1194.5 252.53 1193.73 256.05 1193.73 260.01C1193.73 263.897 1194.5 267.38 1196.04 270.46C1197.66 273.54 1199.86 275.923 1202.64 277.61C1205.5 279.297 1208.84 280.14 1212.65 280.14ZM1360.74 305H1323.56L1271.86 159.8H1308.93L1342.15 263.09L1375.37 159.8H1412.44L1360.74 305ZM1441.22 266.94C1441.44 270.167 1442.47 273.027 1444.3 275.52C1446.14 278.013 1448.67 279.993 1451.89 281.46C1455.19 282.853 1459.08 283.55 1463.55 283.55C1467.81 283.55 1471.62 283.11 1474.99 282.23C1478.44 281.35 1481.41 280.25 1483.9 278.93C1486.47 277.61 1488.45 276.253 1489.84 274.86L1502.82 295.54C1500.99 297.52 1498.39 299.463 1495.01 301.37C1491.71 303.203 1487.35 304.707 1481.92 305.88C1476.5 307.053 1469.64 307.64 1461.35 307.64C1451.38 307.64 1442.51 305.77 1434.73 302.03C1426.96 298.29 1420.84 292.79 1416.36 285.53C1411.89 278.27 1409.65 269.397 1409.65 258.91C1409.65 250.11 1411.56 242.19 1415.37 235.15C1419.26 228.037 1424.87 222.427 1432.2 218.32C1439.54 214.14 1448.37 212.05 1458.71 212.05C1468.54 212.05 1477.05 213.847 1484.23 217.44C1491.49 221.033 1497.07 226.387 1500.95 233.5C1504.91 240.54 1506.89 249.34 1506.89 259.9C1506.89 260.487 1506.86 261.66 1506.78 263.42C1506.78 265.18 1506.71 266.353 1506.56 266.94H1441.22ZM1475.43 249.45C1475.36 247.103 1474.74 244.793 1473.56 242.52C1472.39 240.173 1470.63 238.267 1468.28 236.8C1465.94 235.26 1462.93 234.49 1459.26 234.49C1455.6 234.49 1452.48 235.223 1449.91 236.69C1447.42 238.083 1445.51 239.917 1444.19 242.19C1442.87 244.463 1442.14 246.883 1441.99 249.45H1475.43ZM1586.32 212.05C1592.63 212.05 1598.79 213.333 1604.8 215.9C1610.82 218.467 1615.77 222.537 1619.65 228.11C1623.54 233.61 1625.48 240.87 1625.48 249.89V305H1591.93V255.39C1591.93 248.937 1590.39 244.097 1587.31 240.87C1584.23 237.57 1580.2 235.92 1575.21 235.92C1571.91 235.92 1568.8 236.8 1565.86 238.56C1563 240.247 1560.66 242.667 1558.82 245.82C1557.06 248.9 1556.18 252.457 1556.18 256.49V305H1522.74V214.69H1556.18V228C1557.06 225.58 1558.9 223.16 1561.68 220.74C1564.54 218.247 1568.1 216.193 1572.35 214.58C1576.68 212.893 1581.34 212.05 1586.32 212.05ZM1676.6 256.49C1676.6 263.677 1677.95 269.433 1680.67 273.76C1683.38 278.013 1687.93 280.14 1694.31 280.14C1700.83 280.14 1705.42 278.013 1708.06 273.76C1710.77 269.433 1712.13 263.677 1712.13 256.49V214.69H1745.13V260.01C1745.13 269.69 1743.11 278.123 1739.08 285.31C1735.12 292.423 1729.36 297.923 1721.81 301.81C1714.25 305.697 1705.09 307.64 1694.31 307.64C1683.6 307.64 1674.47 305.697 1666.92 301.81C1659.36 297.923 1653.61 292.423 1649.65 285.31C1645.69 278.123 1643.71 269.69 1643.71 260.01V214.69H1676.6V256.49ZM1805.28 212.05C1811.22 212.05 1816.65 212.563 1821.56 213.59C1826.47 214.543 1830.58 215.643 1833.88 216.89C1837.25 218.137 1839.42 219.163 1840.37 219.97L1829.48 239.66C1828.09 238.633 1825.48 237.313 1821.67 235.7C1817.93 234.087 1813.75 233.28 1809.13 233.28C1805.61 233.28 1802.64 233.83 1800.22 234.93C1797.8 235.957 1796.59 237.607 1796.59 239.88C1796.59 242.153 1797.91 243.987 1800.55 245.38C1803.26 246.7 1807.15 247.873 1812.21 248.9C1816.61 249.78 1821.08 251.173 1825.63 253.08C1830.18 254.987 1833.95 257.81 1836.96 261.55C1840.04 265.217 1841.58 270.13 1841.58 276.29C1841.58 282.597 1840.22 287.803 1837.51 291.91C1834.8 296.017 1831.2 299.207 1826.73 301.48C1822.26 303.753 1817.42 305.33 1812.21 306.21C1807 307.163 1801.94 307.64 1797.03 307.64C1790.14 307.64 1784.12 307.017 1778.99 305.77C1773.93 304.523 1769.82 303.093 1766.67 301.48C1763.52 299.867 1761.32 298.583 1760.07 297.63L1770.85 275.63C1772.76 277.243 1775.87 279.077 1780.2 281.13C1784.53 283.11 1789.11 284.1 1793.95 284.1C1798.64 284.1 1802.27 283.403 1804.84 282.01C1807.41 280.617 1808.69 278.783 1808.69 276.51C1808.69 274.677 1808.07 273.21 1806.82 272.11C1805.57 271.01 1803.81 270.057 1801.54 269.25C1799.27 268.443 1796.52 267.71 1793.29 267.05C1790.36 266.463 1787.24 265.547 1783.94 264.3C1780.64 263.053 1777.52 261.367 1774.59 259.24C1771.66 257.04 1769.27 254.29 1767.44 250.99C1765.61 247.69 1764.69 243.693 1764.69 239C1764.69 232.987 1766.63 228 1770.52 224.04C1774.41 220.08 1779.43 217.11 1785.59 215.13C1791.75 213.077 1798.31 212.05 1805.28 212.05Z" fill="black"/>
<path d="M750.25 342H758.85V408H750.25V342ZM791.59 409.2C787.357 409.2 783.59 408.25 780.29 406.35C777.023 404.45 774.457 401.883 772.59 398.65C770.723 395.383 769.79 391.7 769.79 387.6C769.79 383.5 770.723 379.8 772.59 376.5C774.457 373.2 777.023 370.583 780.29 368.65C783.59 366.717 787.357 365.75 791.59 365.75C795.79 365.75 799.507 366.717 802.74 368.65C806.007 370.583 808.557 373.2 810.39 376.5C812.223 379.8 813.14 383.5 813.14 387.6C813.14 391.7 812.223 395.383 810.39 398.65C808.557 401.883 806.007 404.45 802.74 406.35C799.507 408.25 795.79 409.2 791.59 409.2ZM791.59 401.75C794.257 401.75 796.573 401.133 798.54 399.9C800.54 398.667 802.09 396.983 803.19 394.85C804.29 392.683 804.84 390.25 804.84 387.55C804.84 384.85 804.29 382.417 803.19 380.25C802.09 378.083 800.54 376.367 798.54 375.1C796.573 373.833 794.257 373.2 791.59 373.2C788.89 373.2 786.54 373.833 784.54 375.1C782.54 376.367 780.973 378.083 779.84 380.25C778.74 382.417 778.19 384.85 778.19 387.55C778.19 390.25 778.74 392.683 779.84 394.85C780.973 396.983 782.54 398.667 784.54 399.9C786.54 401.133 788.89 401.75 791.59 401.75ZM836.685 349.75H818.885V342H863.085V349.75H845.285V408H836.685V349.75ZM871.11 395.45C873.143 395.45 874.877 396.167 876.31 397.6C877.777 399.033 878.51 400.967 878.51 403.4C878.51 405.867 878.01 408.217 877.01 410.45C876.01 412.683 874.693 414.667 873.06 416.4C871.427 418.133 869.66 419.517 867.76 420.55L864.51 417.2C865.51 416.733 866.593 416.067 867.76 415.2C868.927 414.333 869.977 413.333 870.91 412.2C871.843 411.1 872.477 409.917 872.81 408.65C872.077 409.017 871.21 409.2 870.21 409.2C868.51 409.167 867.043 408.517 865.81 407.25C864.577 405.95 863.96 404.383 863.96 402.55C863.96 401.183 864.277 399.967 864.91 398.9C865.543 397.833 866.393 397 867.46 396.4C868.56 395.767 869.777 395.45 871.11 395.45ZM912.449 366.95H920.499V350.1H929.149V366.95H939.699V374.4H929.149V394.7C929.149 397.1 929.566 398.867 930.399 400C931.266 401.133 932.416 401.7 933.849 401.7C935.116 401.7 936.099 401.467 936.799 401C937.499 400.533 937.916 400.217 938.049 400.05L941.499 406.45C941.299 406.617 940.766 406.933 939.899 407.4C939.033 407.867 937.916 408.283 936.549 408.65C935.183 409.017 933.583 409.2 931.749 409.2C928.549 409.2 925.866 408.233 923.699 406.3C921.566 404.333 920.499 401.233 920.499 397V374.4H912.449V366.95ZM954.505 389.25C954.538 391.717 955.071 393.967 956.105 396C957.138 398.033 958.671 399.65 960.705 400.85C962.771 402.05 965.305 402.65 968.305 402.65C970.838 402.65 972.988 402.283 974.755 401.55C976.555 400.783 978.021 399.883 979.155 398.85C980.288 397.783 981.105 396.833 981.605 396L985.855 401.25C984.755 402.85 983.405 404.25 981.805 405.45C980.238 406.65 978.321 407.567 976.055 408.2C973.788 408.867 971.021 409.2 967.755 409.2C963.355 409.2 959.538 408.267 956.305 406.4C953.105 404.5 950.638 401.883 948.905 398.55C947.171 395.183 946.305 391.333 946.305 387C946.305 383 947.121 379.4 948.755 376.2C950.388 372.967 952.755 370.417 955.855 368.55C958.988 366.683 962.755 365.75 967.155 365.75C971.188 365.75 974.688 366.6 977.655 368.3C980.655 369.967 982.971 372.333 984.605 375.4C986.271 378.467 987.105 382.133 987.105 386.4C987.105 386.667 987.088 387.15 987.055 387.85C987.021 388.517 986.988 388.983 986.955 389.25H954.505ZM978.805 382.7C978.771 381.333 978.371 379.833 977.605 378.2C976.871 376.567 975.671 375.167 974.005 374C972.338 372.833 970.088 372.25 967.255 372.25C964.321 372.25 961.955 372.817 960.155 373.95C958.388 375.083 957.088 376.467 956.255 378.1C955.421 379.7 954.938 381.233 954.805 382.7H978.805ZM1016.06 402C1018.66 402 1020.76 401.583 1022.36 400.75C1023.96 399.917 1024.96 399.317 1025.36 398.95L1029.61 405.2C1029.28 405.5 1028.48 405.983 1027.21 406.65C1025.98 407.283 1024.38 407.867 1022.41 408.4C1020.48 408.933 1018.28 409.2 1015.81 409.2C1012.04 409.2 1008.54 408.367 1005.31 406.7C1002.08 405 999.461 402.533 997.461 399.3C995.494 396.067 994.511 392.117 994.511 387.45C994.511 382.75 995.494 378.8 997.461 375.6C999.461 372.367 1002.08 369.917 1005.31 368.25C1008.54 366.583 1012.04 365.75 1015.81 365.75C1018.24 365.75 1020.41 366.05 1022.31 366.65C1024.21 367.217 1025.78 367.85 1027.01 368.55C1028.24 369.25 1029.06 369.783 1029.46 370.15L1025.16 376.4C1024.89 376.133 1024.38 375.733 1023.61 375.2C1022.88 374.633 1021.88 374.117 1020.61 373.65C1019.34 373.183 1017.83 372.95 1016.06 372.95C1013.93 372.95 1011.84 373.533 1009.81 374.7C1007.81 375.833 1006.16 377.483 1004.86 379.65C1003.56 381.817 1002.91 384.417 1002.91 387.45C1002.91 390.483 1003.56 393.1 1004.86 395.3C1006.16 397.467 1007.81 399.133 1009.81 400.3C1011.84 401.433 1013.93 402 1016.06 402ZM1061.46 365.75C1064.16 365.75 1066.78 366.317 1069.31 367.45C1071.88 368.583 1073.98 370.383 1075.61 372.85C1077.28 375.283 1078.11 378.467 1078.11 382.4V408H1069.31V384.1C1069.31 380.033 1068.38 377.083 1066.51 375.25C1064.68 373.383 1062.26 372.45 1059.26 372.45C1057.26 372.45 1055.35 373.017 1053.51 374.15C1051.68 375.25 1050.16 376.783 1048.96 378.75C1047.8 380.683 1047.21 382.883 1047.21 385.35V408H1038.41V339.2H1047.21V374.25C1047.51 373.117 1048.31 371.883 1049.61 370.55C1050.95 369.217 1052.65 368.083 1054.71 367.15C1056.78 366.217 1059.03 365.75 1061.46 365.75ZM1112.83 365.75C1115.53 365.75 1118.14 366.317 1120.68 367.45C1123.24 368.583 1125.34 370.383 1126.98 372.85C1128.64 375.283 1129.48 378.467 1129.48 382.4V408H1120.68V384.1C1120.68 380.033 1119.73 377.083 1117.83 375.25C1115.93 373.383 1113.48 372.45 1110.48 372.45C1108.51 372.45 1106.61 373.017 1104.78 374.15C1102.98 375.25 1101.49 376.783 1100.33 378.75C1099.16 380.683 1098.58 382.883 1098.58 385.35V408H1089.88V366.95H1098.58V374.25C1098.88 373.117 1099.69 371.883 1101.03 370.55C1102.36 369.217 1104.06 368.083 1106.13 367.15C1108.19 366.217 1110.43 365.75 1112.83 365.75ZM1159.85 409.2C1155.62 409.2 1151.85 408.25 1148.55 406.35C1145.28 404.45 1142.72 401.883 1140.85 398.65C1138.98 395.383 1138.05 391.7 1138.05 387.6C1138.05 383.5 1138.98 379.8 1140.85 376.5C1142.72 373.2 1145.28 370.583 1148.55 368.65C1151.85 366.717 1155.62 365.75 1159.85 365.75C1164.05 365.75 1167.77 366.717 1171 368.65C1174.27 370.583 1176.82 373.2 1178.65 376.5C1180.48 379.8 1181.4 383.5 1181.4 387.6C1181.4 391.7 1180.48 395.383 1178.65 398.65C1176.82 401.883 1174.27 404.45 1171 406.35C1167.77 408.25 1164.05 409.2 1159.85 409.2ZM1159.85 401.75C1162.52 401.75 1164.83 401.133 1166.8 399.9C1168.8 398.667 1170.35 396.983 1171.45 394.85C1172.55 392.683 1173.1 390.25 1173.1 387.55C1173.1 384.85 1172.55 382.417 1171.45 380.25C1170.35 378.083 1168.8 376.367 1166.8 375.1C1164.83 373.833 1162.52 373.2 1159.85 373.2C1157.15 373.2 1154.8 373.833 1152.8 375.1C1150.8 376.367 1149.23 378.083 1148.1 380.25C1147 382.417 1146.45 384.85 1146.45 387.55C1146.45 390.25 1147 392.683 1148.1 394.85C1149.23 396.983 1150.8 398.667 1152.8 399.9C1154.8 401.133 1157.15 401.75 1159.85 401.75ZM1200.1 408H1191.35V339.2H1200.1V408ZM1231.63 409.2C1227.4 409.2 1223.63 408.25 1220.33 406.35C1217.06 404.45 1214.5 401.883 1212.63 398.65C1210.76 395.383 1209.83 391.7 1209.83 387.6C1209.83 383.5 1210.76 379.8 1212.63 376.5C1214.5 373.2 1217.06 370.583 1220.33 368.65C1223.63 366.717 1227.4 365.75 1231.63 365.75C1235.83 365.75 1239.55 366.717 1242.78 368.65C1246.05 370.583 1248.6 373.2 1250.43 376.5C1252.26 379.8 1253.18 383.5 1253.18 387.6C1253.18 391.7 1252.26 395.383 1250.43 398.65C1248.6 401.883 1246.05 404.45 1242.78 406.35C1239.55 408.25 1235.83 409.2 1231.63 409.2ZM1231.63 401.75C1234.3 401.75 1236.61 401.133 1238.58 399.9C1240.58 398.667 1242.13 396.983 1243.23 394.85C1244.33 392.683 1244.88 390.25 1244.88 387.55C1244.88 384.85 1244.33 382.417 1243.23 380.25C1242.13 378.083 1240.58 376.367 1238.58 375.1C1236.61 373.833 1234.3 373.2 1231.63 373.2C1228.93 373.2 1226.58 373.833 1224.58 375.1C1222.58 376.367 1221.01 378.083 1219.88 380.25C1218.78 382.417 1218.23 384.85 1218.23 387.55C1218.23 390.25 1218.78 392.683 1219.88 394.85C1221.01 396.983 1222.58 398.667 1224.58 399.9C1226.58 401.133 1228.93 401.75 1231.63 401.75ZM1282.42 429.95C1279.19 429.95 1276.26 429.617 1273.62 428.95C1271.02 428.283 1268.74 427.333 1266.77 426.1C1264.84 424.9 1263.29 423.483 1262.12 421.85L1267.82 416.4C1268.46 417.267 1269.31 418.183 1270.37 419.15C1271.47 420.15 1272.96 421 1274.82 421.7C1276.69 422.4 1279.12 422.75 1282.12 422.75C1285.06 422.75 1287.54 422.117 1289.57 420.85C1291.61 419.617 1293.16 417.933 1294.22 415.8C1295.29 413.667 1295.82 411.267 1295.82 408.6V407.25H1304.32V409.15C1304.32 413.683 1303.34 417.483 1301.37 420.55C1299.44 423.65 1296.82 425.983 1293.52 427.55C1290.22 429.15 1286.52 429.95 1282.42 429.95ZM1295.82 408V400C1295.56 400.833 1294.77 401.983 1293.47 403.45C1292.21 404.917 1290.46 406.25 1288.22 407.45C1286.02 408.617 1283.42 409.2 1280.42 409.2C1276.62 409.2 1273.17 408.3 1270.07 406.5C1267.01 404.7 1264.56 402.183 1262.72 398.95C1260.92 395.683 1260.02 391.867 1260.02 387.5C1260.02 383.133 1260.92 379.333 1262.72 376.1C1264.56 372.833 1267.01 370.3 1270.07 368.5C1273.17 366.667 1276.62 365.75 1280.42 365.75C1283.39 365.75 1285.96 366.283 1288.12 367.35C1290.32 368.417 1292.07 369.65 1293.37 371.05C1294.71 372.45 1295.49 373.65 1295.72 374.65V366.95H1304.32V408H1295.82ZM1268.62 387.5C1268.62 390.467 1269.27 393.033 1270.57 395.2C1271.87 397.367 1273.56 399.05 1275.62 400.25C1277.72 401.417 1279.96 402 1282.32 402C1284.86 402 1287.12 401.4 1289.12 400.2C1291.12 399 1292.71 397.317 1293.87 395.15C1295.04 392.95 1295.62 390.4 1295.62 387.5C1295.62 384.6 1295.04 382.067 1293.87 379.9C1292.71 377.7 1291.12 376 1289.12 374.8C1287.12 373.567 1284.86 372.95 1282.32 372.95C1279.96 372.95 1277.72 373.55 1275.62 374.75C1273.56 375.95 1271.87 377.633 1270.57 379.8C1269.27 381.967 1268.62 384.533 1268.62 387.5ZM1333.39 400.05L1347.24 366.95H1355.94L1328.24 428.8H1319.44L1328.74 408L1311.84 366.95H1320.69L1333.39 400.05ZM1370.23 395.45C1372.26 395.45 1374 396.167 1375.43 397.6C1376.9 399.033 1377.63 400.967 1377.63 403.4C1377.63 405.867 1377.13 408.217 1376.13 410.45C1375.13 412.683 1373.81 414.667 1372.18 416.4C1370.55 418.133 1368.78 419.517 1366.88 420.55L1363.63 417.2C1364.63 416.733 1365.71 416.067 1366.88 415.2C1368.05 414.333 1369.1 413.333 1370.03 412.2C1370.96 411.1 1371.6 409.917 1371.93 408.65C1371.2 409.017 1370.33 409.2 1369.33 409.2C1367.63 409.167 1366.16 408.517 1364.93 407.25C1363.7 405.95 1363.08 404.383 1363.08 402.55C1363.08 401.183 1363.4 399.967 1364.03 398.9C1364.66 397.833 1365.51 397 1366.58 396.4C1367.68 395.767 1368.9 395.45 1370.23 395.45ZM1433.17 409.2C1429.4 409.2 1426.02 408.3 1423.02 406.5C1420.05 404.7 1417.7 402.183 1415.97 398.95C1414.27 395.683 1413.42 391.867 1413.42 387.5C1413.42 383.133 1414.27 379.333 1415.97 376.1C1417.7 372.833 1420.05 370.3 1423.02 368.5C1426.02 366.667 1429.4 365.75 1433.17 365.75C1436.2 365.75 1438.87 366.283 1441.17 367.35C1443.47 368.383 1445.3 369.6 1446.67 371C1448.04 372.4 1448.82 373.617 1449.02 374.65V339.2H1457.77V408H1449.17V400C1448.8 401.133 1447.89 402.417 1446.42 403.85C1444.99 405.283 1443.14 406.533 1440.87 407.6C1438.6 408.667 1436.04 409.2 1433.17 409.2ZM1435.17 402C1437.7 402 1440.02 401.4 1442.12 400.2C1444.22 399 1445.89 397.317 1447.12 395.15C1448.39 392.95 1449.02 390.4 1449.02 387.5C1449.02 384.6 1448.39 382.067 1447.12 379.9C1445.89 377.7 1444.22 376 1442.12 374.8C1440.02 373.567 1437.7 372.95 1435.17 372.95C1432.84 372.95 1430.67 373.55 1428.67 374.75C1426.67 375.95 1425.05 377.633 1423.82 379.8C1422.62 381.967 1422.02 384.533 1422.02 387.5C1422.02 390.467 1422.62 393.033 1423.82 395.2C1425.05 397.367 1426.67 399.05 1428.67 400.25C1430.67 401.417 1432.84 402 1435.17 402ZM1472.96 389.25C1473 391.717 1473.53 393.967 1474.56 396C1475.6 398.033 1477.13 399.65 1479.16 400.85C1481.23 402.05 1483.76 402.65 1486.76 402.65C1489.3 402.65 1491.45 402.283 1493.21 401.55C1495.01 400.783 1496.48 399.883 1497.61 398.85C1498.75 397.783 1499.56 396.833 1500.06 396L1504.31 401.25C1503.21 402.85 1501.86 404.25 1500.26 405.45C1498.7 406.65 1496.78 407.567 1494.51 408.2C1492.25 408.867 1489.48 409.2 1486.21 409.2C1481.81 409.2 1478 408.267 1474.76 406.4C1471.56 404.5 1469.1 401.883 1467.36 398.55C1465.63 395.183 1464.76 391.333 1464.76 387C1464.76 383 1465.58 379.4 1467.21 376.2C1468.85 372.967 1471.21 370.417 1474.31 368.55C1477.45 366.683 1481.21 365.75 1485.61 365.75C1489.65 365.75 1493.15 366.6 1496.11 368.3C1499.11 369.967 1501.43 372.333 1503.06 375.4C1504.73 378.467 1505.56 382.133 1505.56 386.4C1505.56 386.667 1505.55 387.15 1505.51 387.85C1505.48 388.517 1505.45 388.983 1505.41 389.25H1472.96ZM1497.26 382.7C1497.23 381.333 1496.83 379.833 1496.06 378.2C1495.33 376.567 1494.13 375.167 1492.46 374C1490.8 372.833 1488.55 372.25 1485.71 372.25C1482.78 372.25 1480.41 372.817 1478.61 373.95C1476.85 375.083 1475.55 376.467 1474.71 378.1C1473.88 379.7 1473.4 381.233 1473.26 382.7H1497.26ZM1511.07 366.95H1520.42L1533.82 399.95L1547.22 366.95H1556.52L1538.97 408H1528.72L1511.07 366.95ZM1570.13 389.25C1570.16 391.717 1570.7 393.967 1571.73 396C1572.76 398.033 1574.3 399.65 1576.33 400.85C1578.4 402.05 1580.93 402.65 1583.93 402.65C1586.46 402.65 1588.61 402.283 1590.38 401.55C1592.18 400.783 1593.65 399.883 1594.78 398.85C1595.91 397.783 1596.73 396.833 1597.23 396L1601.48 401.25C1600.38 402.85 1599.03 404.25 1597.43 405.45C1595.86 406.65 1593.95 407.567 1591.68 408.2C1589.41 408.867 1586.65 409.2 1583.38 409.2C1578.98 409.2 1575.16 408.267 1571.93 406.4C1568.73 404.5 1566.26 401.883 1564.53 398.55C1562.8 395.183 1561.93 391.333 1561.93 387C1561.93 383 1562.75 379.4 1564.38 376.2C1566.01 372.967 1568.38 370.417 1571.48 368.55C1574.61 366.683 1578.38 365.75 1582.78 365.75C1586.81 365.75 1590.31 366.6 1593.28 368.3C1596.28 369.967 1598.6 372.333 1600.23 375.4C1601.9 378.467 1602.73 382.133 1602.73 386.4C1602.73 386.667 1602.71 387.15 1602.68 387.85C1602.65 388.517 1602.61 388.983 1602.58 389.25H1570.13ZM1594.43 382.7C1594.4 381.333 1594 379.833 1593.23 378.2C1592.5 376.567 1591.3 375.167 1589.63 374C1587.96 372.833 1585.71 372.25 1582.88 372.25C1579.95 372.25 1577.58 372.817 1575.78 373.95C1574.01 375.083 1572.71 376.467 1571.88 378.1C1571.05 379.7 1570.56 381.233 1570.43 382.7H1594.43ZM1621.39 408H1612.64V339.2H1621.39V408ZM1652.92 409.2C1648.68 409.2 1644.92 408.25 1641.62 406.35C1638.35 404.45 1635.78 401.883 1633.92 398.65C1632.05 395.383 1631.12 391.7 1631.12 387.6C1631.12 383.5 1632.05 379.8 1633.92 376.5C1635.78 373.2 1638.35 370.583 1641.62 368.65C1644.92 366.717 1648.68 365.75 1652.92 365.75C1657.12 365.75 1660.83 366.717 1664.07 368.65C1667.33 370.583 1669.88 373.2 1671.72 376.5C1673.55 379.8 1674.47 383.5 1674.47 387.6C1674.47 391.7 1673.55 395.383 1671.72 398.65C1669.88 401.883 1667.33 404.45 1664.07 406.35C1660.83 408.25 1657.12 409.2 1652.92 409.2ZM1652.92 401.75C1655.58 401.75 1657.9 401.133 1659.87 399.9C1661.87 398.667 1663.42 396.983 1664.52 394.85C1665.62 392.683 1666.17 390.25 1666.17 387.55C1666.17 384.85 1665.62 382.417 1664.52 380.25C1663.42 378.083 1661.87 376.367 1659.87 375.1C1657.9 373.833 1655.58 373.2 1652.92 373.2C1650.22 373.2 1647.87 373.833 1645.87 375.1C1643.87 376.367 1642.3 378.083 1641.17 380.25C1640.07 382.417 1639.52 384.85 1639.52 387.55C1639.52 390.25 1640.07 392.683 1641.17 394.85C1642.3 396.983 1643.87 398.667 1645.87 399.9C1647.87 401.133 1650.22 401.75 1652.92 401.75ZM1692.91 428.8H1684.26V366.95H1693.06V374.65C1693.36 373.617 1694.2 372.4 1695.56 371C1696.93 369.6 1698.76 368.383 1701.06 367.35C1703.4 366.283 1706.06 365.75 1709.06 365.75C1712.86 365.75 1716.23 366.667 1719.16 368.5C1722.13 370.3 1724.45 372.833 1726.11 376.1C1727.81 379.333 1728.66 383.133 1728.66 387.5C1728.66 391.867 1727.8 395.683 1726.06 398.95C1724.33 402.183 1721.96 404.7 1718.96 406.5C1716 408.3 1712.6 409.2 1708.76 409.2C1705.66 409.2 1702.95 408.617 1700.61 407.45C1698.31 406.283 1696.5 404.967 1695.16 403.5C1693.86 402.033 1693.11 400.867 1692.91 400V428.8ZM1720.06 387.5C1720.06 384.533 1719.45 381.967 1718.21 379.8C1717.01 377.633 1715.41 375.95 1713.41 374.75C1711.41 373.55 1709.25 372.95 1706.91 372.95C1704.35 372.95 1702.01 373.567 1699.91 374.8C1697.81 376 1696.15 377.7 1694.91 379.9C1693.68 382.067 1693.06 384.6 1693.06 387.5C1693.06 390.4 1693.68 392.95 1694.91 395.15C1696.15 397.317 1697.81 399 1699.91 400.2C1702.01 401.4 1704.35 402 1706.91 402C1709.25 402 1711.41 401.417 1713.41 400.25C1715.41 399.05 1717.01 397.367 1718.21 395.2C1719.45 393.033 1720.06 390.467 1720.06 387.5ZM1786.98 365.75C1790.01 365.75 1792.61 366.417 1794.78 367.75C1796.94 369.05 1798.59 371.05 1799.73 373.75C1800.89 376.45 1801.48 379.9 1801.48 384.1V408H1792.88V385.85C1792.88 381.417 1792.26 378.083 1791.03 375.85C1789.79 373.617 1787.54 372.5 1784.28 372.5C1782.54 372.5 1780.88 372.983 1779.28 373.95C1777.71 374.883 1776.41 376.333 1775.38 378.3C1774.38 380.267 1773.88 382.783 1773.88 385.85V408H1765.78V385.85C1765.78 381.417 1765.01 378.083 1763.48 375.85C1761.94 373.617 1759.79 372.5 1757.03 372.5C1755.26 372.5 1753.59 372.967 1752.03 373.9C1750.49 374.8 1749.24 376.233 1748.28 378.2C1747.31 380.167 1746.83 382.717 1746.83 385.85V408H1738.18V366.95H1746.83V373.25C1747.19 372.217 1747.98 371.117 1749.18 369.95C1750.41 368.783 1751.98 367.8 1753.88 367C1755.81 366.167 1757.96 365.75 1760.33 365.75C1762.79 365.75 1764.86 366.25 1766.53 367.25C1768.19 368.25 1769.51 369.483 1770.48 370.95C1771.44 372.383 1772.11 373.767 1772.48 375.1C1772.94 373.667 1773.84 372.233 1775.18 370.8C1776.51 369.333 1778.19 368.133 1780.23 367.2C1782.26 366.233 1784.51 365.75 1786.98 365.75ZM1818.96 389.25C1818.99 391.717 1819.52 393.967 1820.56 396C1821.59 398.033 1823.12 399.65 1825.16 400.85C1827.22 402.05 1829.76 402.65 1832.76 402.65C1835.29 402.65 1837.44 402.283 1839.21 401.55C1841.01 400.783 1842.47 399.883 1843.61 398.85C1844.74 397.783 1845.56 396.833 1846.06 396L1850.31 401.25C1849.21 402.85 1847.86 404.25 1846.26 405.45C1844.69 406.65 1842.77 407.567 1840.51 408.2C1838.24 408.867 1835.47 409.2 1832.21 409.2C1827.81 409.2 1823.99 408.267 1820.76 406.4C1817.56 404.5 1815.09 401.883 1813.36 398.55C1811.62 395.183 1810.76 391.333 1810.76 387C1810.76 383 1811.57 379.4 1813.21 376.2C1814.84 372.967 1817.21 370.417 1820.31 368.55C1823.44 366.683 1827.21 365.75 1831.61 365.75C1835.64 365.75 1839.14 366.6 1842.11 368.3C1845.11 369.967 1847.42 372.333 1849.06 375.4C1850.72 378.467 1851.56 382.133 1851.56 386.4C1851.56 386.667 1851.54 387.15 1851.51 387.85C1851.47 388.517 1851.44 388.983 1851.41 389.25H1818.96ZM1843.26 382.7C1843.22 381.333 1842.82 379.833 1842.06 378.2C1841.32 376.567 1840.12 375.167 1838.46 374C1836.79 372.833 1834.54 372.25 1831.71 372.25C1828.77 372.25 1826.41 372.817 1824.61 373.95C1822.84 375.083 1821.54 376.467 1820.71 378.1C1819.87 379.7 1819.39 381.233 1819.26 382.7H1843.26ZM1884.11 365.75C1886.81 365.75 1889.43 366.317 1891.96 367.45C1894.53 368.583 1896.63 370.383 1898.26 372.85C1899.93 375.283 1900.76 378.467 1900.76 382.4V408H1891.96V384.1C1891.96 380.033 1891.01 377.083 1889.11 375.25C1887.21 373.383 1884.76 372.45 1881.76 372.45C1879.8 372.45 1877.9 373.017 1876.06 374.15C1874.26 375.25 1872.78 376.783 1871.61 378.75C1870.45 380.683 1869.86 382.883 1869.86 385.35V408H1861.16V366.95H1869.86V374.25C1870.16 373.117 1870.98 371.883 1872.31 370.55C1873.65 369.217 1875.35 368.083 1877.41 367.15C1879.48 366.217 1881.71 365.75 1884.11 365.75ZM1908.64 366.95H1916.69V350.1H1925.34V366.95H1935.89V374.4H1925.34V394.7C1925.34 397.1 1925.76 398.867 1926.59 400C1927.46 401.133 1928.61 401.7 1930.04 401.7C1931.31 401.7 1932.29 401.467 1932.99 401C1933.69 400.533 1934.11 400.217 1934.24 400.05L1937.69 406.45C1937.49 406.617 1936.96 406.933 1936.09 407.4C1935.22 407.867 1934.11 408.283 1932.74 408.65C1931.37 409.017 1929.77 409.2 1927.94 409.2C1924.74 409.2 1922.06 408.233 1919.89 406.3C1917.76 404.333 1916.69 401.233 1916.69 397V374.4H1908.64V366.95Z" fill="#A4A4A4"/>
</svg>
