<?xml version="1.0" standalone="no"?><svg xmlns="http://www.w3.org/2000/svg" viewBox="0 0 1440 320"><path fill="#eaf6f6" fill-opacity="1" d="M0,64L30,64C60,64,120,64,180,96C240,128,300,192,360,202.7C420,213,480,171,540,176C600,181,660,235,720,213.3C780,192,840,96,900,69.3C960,43,1020,85,1080,90.7C1140,96,1200,64,1260,69.3C1320,75,1380,117,1410,138.7L1440,160L1440,320L1410,320C1380,320,1320,320,1260,320C1200,320,1140,320,1080,320C1020,320,960,320,900,320C840,320,780,320,720,320C660,320,600,320,540,320C480,320,420,320,360,320C300,320,240,320,180,320C120,320,60,320,30,320L0,320Z"></path></svg>